<?xml version="1.0" standalone="no"?>
<!DOCTYPE svg PUBLIC "-//W3C//DTD SVG 20010904//EN"
 "http://www.w3.org/TR/2001/REC-SVG-20010904/DTD/svg10.dtd">
<svg version="1.0" xmlns="http://www.w3.org/2000/svg"
 width="48.000000pt" height="48.000000pt" viewBox="0 0 48.000000 48.000000"
 preserveAspectRatio="xMidYMid meet">

<g transform="translate(0.000000,48.000000) scale(0.100000,-0.100000)"
fill="#000000" stroke="none">
<path d="M117 308 c-3 -7 -21 -48 -41 -90 -32 -71 -34 -78 -16 -78 10 0 22 9
25 20 5 16 15 20 55 20 39 0 49 -3 53 -20 3 -12 14 -20 25 -20 19 0 17 7 -21
90 -28 62 -46 90 -58 90 -9 0 -19 -6 -22 -12z m42 -68 c10 -29 9 -30 -20 -30
-33 0 -33 0 -17 35 15 33 24 32 37 -5z"/>
<path d="M250 230 c0 -73 3 -90 15 -90 11 0 15 11 15 36 l0 35 48 -3 c45 -3
47 -4 50 -35 3 -27 8 -33 26 -33 19 0 22 4 18 36 -3 25 -10 38 -24 42 -18 4
-18 5 2 19 25 18 26 45 2 66 -13 12 -37 17 -85 17 l-67 0 0 -90z m135 35 c0
-17 -8 -20 -52 -23 -51 -3 -53 -2 -53 23 0 25 2 26 53 23 44 -3 52 -6 52 -23z"/>
</g>
</svg>
